<svg xmlns="http://www.w3.org/2000/svg" viewBox="0 0 1400 1050"><defs><style>.cls-1{fill:#fcfcfc;}.cls-2{fill:#e0e1e2;}.cls-17,.cls-18,.cls-3,.cls-8{fill:none;stroke-linecap:round;stroke-linejoin:round;stroke-width:5.6px;}.cls-17,.cls-3{stroke:#333;}.cls-4{fill:#c8c8c8;}.cls-5{fill:#acacac;}.cls-6{fill:#ddd;}.cls-7{fill:#04cae4;}.cls-8{stroke:#00edff;}.cls-9{fill:#d6d6d6;}.cls-10{fill:#c2c2c2;}.cls-11{fill:#e6e6e6;}.cls-12{fill:#333;}.cls-13{fill:#ff7abe;}.cls-14{fill:#fbbc00;}.cls-15{fill:#fbd747;}.cls-16{fill:#fff09b;}.cls-17{fill-rule:evenodd;}.cls-18{stroke:#949494;}.cls-19{fill:#da325f;}.cls-20{fill:#ff52ab;}</style></defs><title>cartoon-rock-paper-scissors-vector-characters</title><g id="Background"><rect class="cls-1" width="1400" height="1050"/></g><g id="Illustration"><ellipse class="cls-2" cx="700" cy="583.62" rx="412.84" ry="41.93"/><path class="cls-3" d="M1017.48,553.27,1010,585.61l20-.39c6.86-.47,13.13,2.83,15.16,9.4"/><path class="cls-3" d="M882.81,444.31l-30.38,13.37-2.36-19.88a14.78,14.78,0,0,0-13-12.95"/><path class="cls-4" d="M1049.91,375.54c-10.42,4.58-49.16,25.2-60.66,20.3v0a4.83,4.83,0,0,1-2.75-2.66c-4.36-10.55,14.35-15.9,14.35-15.9s150.56-67.8,166.48-75.63c0,0,6.26-2.85,9.55,2.34,1.12,1.82,1.55,5.18,1.07,9.55-1.63,16.35-15.29,46.41-48.27,59.13C1087.9,388.72,1061.54,370.43,1049.91,375.54Z"/><path class="cls-5" d="M1049.91,375.54c-10.42,4.58-49.16,25.2-60.66,20.3v0a2.92,2.92,0,0,1-.23-.54c-3.77-10.77,15.2-15.06,15.2-15.06s144.13-13.51,170.51-66.12a10.62,10.62,0,0,1,3.22-.58c-1.63,16.35-15.29,46.41-48.27,59.13C1087.9,388.72,1061.54,370.43,1049.91,375.54Z"/><path class="cls-6" d="M1047.26,361.33l-2.5-3.29,125.25-59s5.41,1.22,4,2.36C1147,323.16,1047.26,361.33,1047.26,361.33Z"/><path class="cls-3" d="M1167.32,301.62c-15.92,7.83-166.48,75.63-166.48,75.63s-18.7,5.36-14.34,15.9c5.14,12.44,51.81-12.51,63.43-17.6s38,13.18,79.74-2.91,52.57-60.1,47.19-68.66C1173.58,298.78,1167.32,301.62,1167.32,301.62Z"/><path class="cls-7" d="M989.83,405.11l19.92-9.07c5.44-2.49,8-9.45,5.81-15.54s-8.47-9-13.92-6.55l-23.06,10.52a56.42,56.42,0,1,0,11.25,20.64Zm-70.68,43.31a31.92,31.92,0,1,1,43.7-11.3A31.93,31.93,0,0,1,919.15,448.42Z"/><path class="cls-3" d="M989.83,405.11l19.92-9.07c5.44-2.49,8-9.45,5.81-15.54s-8.47-9-13.92-6.55l-23.06,10.52a56.42,56.42,0,1,0,11.25,20.64Zm-70,42.17a30.59,30.59,0,1,1,41.88-10.84A30.6,30.6,0,0,1,919.83,447.28Z"/><path class="cls-8" d="M900.22,394.6a43.89,43.89,0,0,1,61.44-8.8"/><path class="cls-9" d="M1050.19,375.8c-2.08,11.19-13.3,53.62-5.91,63.7h0a4.77,4.77,0,0,0,3.22,2.06c11.27,1.85,12.2-17.59,12.2-17.59s31.63-162.07,35.61-179.35c0,0,1.35-6.75-4.46-8.77-2-.68-5.39-.32-9.54,1.14-15.54,5.32-41.69,25.49-46.54,60.5C1028.68,341.82,1052.51,363.31,1050.19,375.8Z"/><path class="cls-10" d="M1050.19,375.8c-2.08,11.19-13.3,53.62-5.91,63.7h0a3.51,3.51,0,0,0,.58.1c11.35,1.21,11.19-18.24,11.19-18.24s-34.45-144.59,25.43-181.1a10.42,10.42,0,0,0-.17-3.27c-15.54,5.32-41.69,25.49-46.54,60.5C1028.68,341.82,1052.51,363.31,1050.19,375.8Z"/><path class="cls-11" d="M1058.25,409.51l5.23,3.17,33.74-171.27s-2.42-5-3.21-3.34C1079,269.37,1058.25,409.51,1058.25,409.51Z"/><path class="cls-3" d="M1090.87,235.86c-9.57-3.28-49.94,17.29-56.07,61.63s17.7,65.83,15.38,78.3-15.94,63.6-2.66,65.76c11.26,1.84,12.21-17.58,12.21-17.58s31.62-162.07,35.62-179.36C1095.35,244.61,1096.68,237.87,1090.87,235.86Z"/><path class="cls-7" d="M992.93,456.48a56.44,56.44,0,1,0,64.86-9.2l5-24.84c1.17-5.88-3.1-11.26-9.55-12.06s-12.63,3.34-13.81,9.2L1035.12,441A56.26,56.26,0,0,0,992.93,456.48Zm17.19,18.14a31.92,31.92,0,1,1-1,45.13A31.94,31.94,0,0,1,1010.12,474.62Z"/><path class="cls-3" d="M992.93,456.48a56.44,56.44,0,1,0,64.86-9.2l5-24.84c1.17-5.88-3.1-11.26-9.55-12.06s-12.63,3.34-13.81,9.2L1035.12,441A56.26,56.26,0,0,0,992.93,456.48Zm18.11,19.1a30.59,30.59,0,1,1-1,43.25A30.61,30.61,0,0,1,1011,475.58Z"/><path class="cls-8" d="M988.78,496.32a43.9,43.9,0,0,1,45.28-42.45"/><path class="cls-12" d="M1135.24,337.74c2.89,6.32-.26,13-6.57,15.85l-3.64,1.67c-6.31,2.89-13.08.8-16-5.52l-1.29-2.82a1.7,1.7,0,0,1,.84-2.26l23.08-10.58a1.7,1.7,0,0,1,2.26.84Z"/><circle class="cls-12" cx="1142.04" cy="327.59" r="4.14"/><circle class="cls-12" cx="1093.91" cy="349.64" r="4.14"/><ellipse class="cls-13" cx="1098.39" cy="363.24" rx="6.19" ry="4.14" transform="translate(-51.47 490.65) rotate(-24.62)"/><ellipse class="cls-13" cx="1152.43" cy="338.48" rx="6.19" ry="4.14" transform="translate(-36.24 510.91) rotate(-24.62)"/><polyline class="cls-3" points="772.8 503.56 785.52 559.29 804.99 557.95"/><polyline class="cls-3" points="689.08 509.9 701.79 565.63 721.27 564.29"/><path class="cls-3" d="M625.59,357.2c3.17,17.46-7.59,31.58-15.53,40.32a14,14,0,0,0,2.74,21.17l20.05,11.4a5.59,5.59,0,0,1,.2,9.61l-8.84,5.54"/><path class="cls-14" d="M648.81,488.88l.16.94,1.48,8.4c2.65,15-6.64,29.17-20.72,31.66s-27.61-7.67-30.26-22.67l-1.64-9.34Z"/><path class="cls-15" d="M782.88,281.11s28.39,148.81,32.19,182.57c1.76,15.45-10.62,37.57-45,42.95l-6.34,1.12-57.34,10.11-50.93,9L630,531.34c14.09-2.48,23.38-16.66,20.73-31.66l-2.4-13.62-.17-.93-2.23-12.68-2.39-13.57L618.24,315.52c-2-11.53,4.74-27.74,16.27-29.77l123.82-21.83A21.18,21.18,0,0,1,782.88,281.11Z"/><path class="cls-16" d="M676.54,481C639,451,621.91,303.06,625,292.27c3.21-11,54.45-14.45,54.45-14.45l52.35-9.23,33.51-3.7c4.46-.5,12,3.68,14,7.72L787,293.3l24.85,156.15C815.75,483.14,705.67,504.36,676.54,481Z"/><path class="cls-3" d="M769.85,505.17c34.34-5.39,46.72-27.5,45-42.95-3.8-33.77-32.19-182.58-32.19-182.58a21.19,21.19,0,0,0-24.55-17.19L634.25,284.29a21.19,21.19,0,0,0-17.19,24.55l26.2,148.57L645.65,471"/><polyline class="cls-3" points="645.65 470.98 647.88 483.66 648.05 484.6"/><path class="cls-3" d="M769.85,505.17l-6.34,1.12L706.17,516.4l-50.93,9-25.51,4.5c-14,2.47-26.69-2.45-29.34-17.46l-2.56-14.55,51-9"/><path class="cls-3" d="M648.05,484.6l2.4,13.62c2.65,15-6.64,29.17-20.72,31.66"/><line class="cls-3" x1="669.18" y1="403.89" x2="784.99" y2="383.47"/><line class="cls-3" x1="672.43" y1="422.35" x2="788.25" y2="401.93"/><line class="cls-3" x1="675.69" y1="440.82" x2="791.5" y2="420.4"/><line class="cls-3" x1="678.94" y1="459.28" x2="794.76" y2="438.86"/><line class="cls-3" x1="700.12" y1="474.59" x2="780.09" y2="460.49"/><path class="cls-17" d="M744.61,322.62c-.74-4.79,1.77-9.5,7.33-10.48s9.52,2.52,10.48,7.34"/><path class="cls-17" d="M736,333.33c1.55,9.71-5.36,16.25-13.71,17.73s-17.11-2.44-19-12"/><path class="cls-17" d="M673.71,335.12c-.74-4.79,1.77-9.5,7.34-10.48s9.52,2.52,10.48,7.34"/><ellipse class="cls-13" cx="676.28" cy="354.77" rx="12.87" ry="8.6" transform="translate(-51.33 122.82) rotate(-10)"/><ellipse class="cls-13" cx="766.73" cy="338.82" rx="12.87" ry="8.6" transform="matrix(0.98, -0.17, 0.17, 0.98, -47.19, 138.29)"/><path class="cls-5" d="M561.51,487.69c.06,59-25.5,85.72-55.35,89.88,0,0-33.1,7.22-48.15,4.75-10.2-1.65-19.47.76-26.8.7-10.77-.1-23.64,3-39.57,1.51-27-2.58-90.76-2.95-90.76-96.84a85.8,85.8,0,0,1,8.54-37.12c18.73-39.14,66.2-66.93,121.79-66.93a174.79,174.79,0,0,1,30.26,2.52C533.4,398.63,561.48,454.83,561.51,487.69Z"/><path class="cls-4" d="M559.64,474.45c0,70.25-68.35,86.62-159.94,65.62-81.71-18.73-39.1-132.76-7.45-146,24.46-10.21,19.23-4.05,69.22-7.92C519.86,396.47,559.64,458.6,559.64,474.45Z"/><path class="cls-18" d="M363.47,430.26l.27-13L352.5,405.1l11.24,12.12s19.36,4.21,18.18,25.11"/><path class="cls-3" d="M561.52,487.69c2.53,107.14-91.72,95.69-130.31,95.33s-130.32,19.29-130.32-95.33a85.52,85.52,0,0,1,8.54-37.12c18.72-39.13,66.18-66.93,121.78-66.93C525.63,383.64,560.64,450.58,561.52,487.69Z"/><path class="cls-3" d="M405.92,583.32l24.29-37.22a4.86,4.86,0,0,1,8.38.41L470,606.81c.36.59,18.12,0,18.12,0"/><path class="cls-3" d="M495.77,578.47l24.29-37.23a4.86,4.86,0,0,1,8.38.41L559.84,602c.37.59,18.12,0,18.12,0"/><path class="cls-3" d="M342.48,463.55c.3,7.73-40.4,37.09,4.23,57a2.8,2.8,0,0,1,.85,4.53l-5.7,5.65"/><path class="cls-17" d="M422,453.72a7.15,7.15,0,0,1,7.37-7.36c4.6,0,7.27,3.36,7.36,7.36"/><path class="cls-12" d="M495.65,461.16c0,11.17-9,18.77-20.22,18.77H469c-11.16,0-19.66-7.6-19.66-18.77v-5a2.74,2.74,0,0,1,2.74-2.74h40.83a2.74,2.74,0,0,1,2.74,2.74Z"/><path class="cls-19" d="M471.38,464.8a19.94,19.94,0,0,0-14.85,6.63c3.09,3.23,7.9,5.15,13.35,5.15h4.81a19.8,19.8,0,0,0,12.44-4.1A20,20,0,0,0,471.38,464.8Z"/><circle class="cls-12" cx="515.11" cy="450.88" r="7.92"/><ellipse class="cls-13" cx="427.37" cy="473.75" rx="9.95" ry="6.65"/><ellipse class="cls-13" cx="522.94" cy="473.75" rx="9.95" ry="6.65"/></g><g id="Text"><circle class="cls-12" cx="770.69" cy="780.49" r="9.64"/><circle class="cls-12" cx="476.04" cy="780.49" r="9.64"/><path class="cls-20" d="M275.17,812.7l-8.87-26.4h-4.38v26.4H247.5V746.41h21.2q9.63,0,14.95,5T289,766.36a23.54,23.54,0,0,1-.84,6.55,18,18,0,0,1-2.2,5,13.64,13.64,0,0,1-3,3.37,11.58,11.58,0,0,1-3.26,1.87l11.29,29.59Zm-.89-45.5a10.23,10.23,0,0,0-.71-4.12,6.73,6.73,0,0,0-1.82-2.53,6.15,6.15,0,0,0-2.48-1.26,11.34,11.34,0,0,0-2.67-.33h-4.68v16.76h4.4a8.38,8.38,0,0,0,5.57-2Q274.28,771.69,274.28,767.2Z"/><path class="cls-20" d="M346.37,779.37a54.27,54.27,0,0,1-1.78,14.37,34.63,34.63,0,0,1-5.06,11.1,23.09,23.09,0,0,1-8,7.11,23.58,23.58,0,0,1-21.25,0,23,23,0,0,1-8-7.11,34.4,34.4,0,0,1-5-11.1,59.34,59.34,0,0,1-.05-28.65,33.28,33.28,0,0,1,5-11,22.16,22.16,0,0,1,18.72-9.51,22.55,22.55,0,0,1,10.63,2.48,23,23,0,0,1,8,7,34.17,34.17,0,0,1,5.06,11A53.27,53.27,0,0,1,346.37,779.37Zm-15.36,0a46.74,46.74,0,0,0-.65-8,26.22,26.22,0,0,0-1.92-6.41,11.89,11.89,0,0,0-3.14-4.26,6.69,6.69,0,0,0-4.4-1.54,6.85,6.85,0,0,0-4.44,1.54,11.64,11.64,0,0,0-3.19,4.26,25,25,0,0,0-1.87,6.41,49,49,0,0,0-.61,8,49.68,49.68,0,0,0,.61,8,25,25,0,0,0,1.87,6.46,12.11,12.11,0,0,0,3.19,4.31,6.74,6.74,0,0,0,4.44,1.59,6.58,6.58,0,0,0,4.4-1.59,12.38,12.38,0,0,0,3.14-4.31,26.11,26.11,0,0,0,1.92-6.46A47.39,47.39,0,0,0,331,779.37Z"/><path class="cls-20" d="M389.72,811.91a22.1,22.1,0,0,1-11.24,2.57A21.71,21.71,0,0,1,368,811.91a24.47,24.47,0,0,1-8.1-7.21,35.81,35.81,0,0,1-5.24-11.05,50.09,50.09,0,0,1-1.87-14.09,50.9,50.9,0,0,1,1.87-14.23,35.06,35.06,0,0,1,5.24-11.05,24.18,24.18,0,0,1,8.1-7.12,22,22,0,0,1,10.53-2.53,23.29,23.29,0,0,1,11.1,2.39,21.87,21.87,0,0,1,7.16,6l-8.05,10.86a14,14,0,0,0-3.79-3.56,9.9,9.9,0,0,0-5.29-1.31,8.65,8.65,0,0,0-5.2,1.59,13.16,13.16,0,0,0-3.74,4.35,22.29,22.29,0,0,0-2.3,6.56,41.75,41.75,0,0,0-.75,8.1,41,41,0,0,0,.75,8.05,22.75,22.75,0,0,0,2.3,6.55,12.76,12.76,0,0,0,3.79,4.4,8.76,8.76,0,0,0,5.24,1.59,9.18,9.18,0,0,0,5.24-1.49,12.07,12.07,0,0,0,3.56-3.56l8.34,10.39A22.66,22.66,0,0,1,389.72,811.91Z"/><path class="cls-20" d="M432.88,812.7l-14.14-30.8h-.28v30.8H403.39V746.41h15.07V774h.28l13.67-27.62h16.76l-17,30.34,18.07,36Z"/><path class="cls-14" d="M552.54,767.2a24.51,24.51,0,0,1-1.69,9.55,19,19,0,0,1-4.49,6.65,18.22,18.22,0,0,1-6.37,3.88,21.44,21.44,0,0,1-7.21,1.27h-6.46V812.7h-14.7V746.41h20.6a26.2,26.2,0,0,1,7.16,1,18.4,18.4,0,0,1,6.56,3.42,17.2,17.2,0,0,1,4.77,6.41A24,24,0,0,1,552.54,767.2Zm-14,.28c0-3-.71-5.15-2.15-6.46a7.5,7.5,0,0,0-5.24-2h-4.78v17.32h4.78a6.91,6.91,0,0,0,5.24-2.29C537.78,772.55,538.49,770.35,538.49,767.48Z"/><path class="cls-14" d="M586,812.7l-2.71-12.08H568.36l-2.71,12.08h-15l16.1-66.29h18.82l16,66.29ZM576,760.83h-.38L570.05,789h11.33Z"/><path class="cls-14" d="M648.32,767.2a24.51,24.51,0,0,1-1.69,9.55,19,19,0,0,1-4.49,6.65,18.22,18.22,0,0,1-6.37,3.88,21.44,21.44,0,0,1-7.21,1.27H622.1V812.7H607.4V746.41H628a26.2,26.2,0,0,1,7.16,1,18.4,18.4,0,0,1,6.56,3.42,17.2,17.2,0,0,1,4.77,6.41A24,24,0,0,1,648.32,767.2Zm-14,.28q0-4.5-2.16-6.46a7.48,7.48,0,0,0-5.24-2H622.1v17.32h4.78a6.9,6.9,0,0,0,5.24-2.29Q634.28,771.78,634.28,767.48Z"/><path class="cls-14" d="M656.28,812.7V746.41h32v13.2H670.6v13h16.29V785H670.6v14.23h18.82V812.7Z"/><path class="cls-14" d="M725.89,812.7,717,786.3h-4.39v26.4H698.22V746.41h21.21q9.62,0,14.94,5t5.33,14.94a23.54,23.54,0,0,1-.84,6.55,18.29,18.29,0,0,1-2.19,5,13.87,13.87,0,0,1-3,3.37,11.58,11.58,0,0,1-3.26,1.87l11.29,29.59ZM725,767.2a10.42,10.42,0,0,0-.7-4.12,6.86,6.86,0,0,0-1.83-2.53,6.15,6.15,0,0,0-2.48-1.26,11.34,11.34,0,0,0-2.67-.33h-4.68v16.76H717a8.38,8.38,0,0,0,5.57-2Q725,771.69,725,767.2Z"/><path class="cls-7" d="M832.48,762.24a11.8,11.8,0,0,0-3.93-3,10.82,10.82,0,0,0-4.68-1.07,7.12,7.12,0,0,0-4.54,1.59c-1.34,1.06-2,2.82-2,5.25a6,6,0,0,0,2,4.83,33.23,33.23,0,0,0,6.09,3.8c1.51.75,3.09,1.64,4.76,2.67a21.94,21.94,0,0,1,4.57,3.8,19.22,19.22,0,0,1,3.44,5.39,18.64,18.64,0,0,1,1.37,7.46,24.45,24.45,0,0,1-1.7,9.43,19,19,0,0,1-4.57,6.75,19.4,19.4,0,0,1-6.63,4,22.69,22.69,0,0,1-7.79,1.36A25.9,25.9,0,0,1,808,812.23a26.68,26.68,0,0,1-7.91-5.24l7.67-11.23a17.52,17.52,0,0,0,5,3.6,12.9,12.9,0,0,0,5.71,1.36,6.44,6.44,0,0,0,4.59-1.78,6.55,6.55,0,0,0,1.87-5,6.48,6.48,0,0,0-2.25-5.2,32.91,32.91,0,0,0-6.55-4.07,42,42,0,0,1-5.1-2.91,18.78,18.78,0,0,1-4.22-3.84,16.84,16.84,0,0,1-2.85-5.24,21.82,21.82,0,0,1-1-7.11,22.63,22.63,0,0,1,1.82-9.51,18.61,18.61,0,0,1,4.78-6.5,19.51,19.51,0,0,1,6.55-3.75,22.58,22.58,0,0,1,7.26-1.22A25.38,25.38,0,0,1,833,746.4a20.3,20.3,0,0,1,7.21,4.84Z"/><path class="cls-7" d="M882.48,811.91a22.1,22.1,0,0,1-11.24,2.57,21.71,21.71,0,0,1-10.53-2.57,24.47,24.47,0,0,1-8.1-7.21,35.81,35.81,0,0,1-5.24-11.05,50.09,50.09,0,0,1-1.87-14.09,50.9,50.9,0,0,1,1.87-14.23,35.06,35.06,0,0,1,5.24-11.05,24.18,24.18,0,0,1,8.1-7.12,22,22,0,0,1,10.53-2.53,23.29,23.29,0,0,1,11.1,2.39,21.87,21.87,0,0,1,7.16,6l-8,10.86a14,14,0,0,0-3.79-3.56,9.9,9.9,0,0,0-5.29-1.31,8.65,8.65,0,0,0-5.2,1.59,13.16,13.16,0,0,0-3.74,4.35,22.29,22.29,0,0,0-2.3,6.56,41.75,41.75,0,0,0-.75,8.1,41,41,0,0,0,.75,8.05,22.75,22.75,0,0,0,2.3,6.55,12.76,12.76,0,0,0,3.79,4.4,8.76,8.76,0,0,0,5.24,1.59,9.18,9.18,0,0,0,5.24-1.49,12.07,12.07,0,0,0,3.56-3.56l8.34,10.39A22.66,22.66,0,0,1,882.48,811.91Z"/><path class="cls-7" d="M896.15,812.7V746.41h15.07V812.7Z"/><path class="cls-7" d="M950.45,762.24a11.8,11.8,0,0,0-3.93-3,10.82,10.82,0,0,0-4.68-1.07,7.12,7.12,0,0,0-4.54,1.59c-1.35,1.06-2,2.82-2,5.25a5.94,5.94,0,0,0,2.07,4.83,32.75,32.75,0,0,0,6.08,3.8c1.51.75,3.09,1.64,4.76,2.67a22.2,22.2,0,0,1,4.57,3.8,19.22,19.22,0,0,1,3.44,5.39,18.64,18.64,0,0,1,1.37,7.46,24.45,24.45,0,0,1-1.7,9.43,19,19,0,0,1-4.57,6.75,19.31,19.31,0,0,1-6.63,4,22.69,22.69,0,0,1-7.79,1.36A25.87,25.87,0,0,1,926,812.23a26.68,26.68,0,0,1-7.91-5.24l7.68-11.23a17.2,17.2,0,0,0,5,3.6,12.9,12.9,0,0,0,5.71,1.36,6.44,6.44,0,0,0,4.59-1.78,6.55,6.55,0,0,0,1.87-5,6.48,6.48,0,0,0-2.25-5.2,32.91,32.91,0,0,0-6.55-4.07A42.89,42.89,0,0,1,929,781.8a19,19,0,0,1-4.21-3.84,16.64,16.64,0,0,1-2.85-5.24,21.82,21.82,0,0,1-1-7.11,22.63,22.63,0,0,1,1.82-9.51,18.61,18.61,0,0,1,4.78-6.5,19.51,19.51,0,0,1,6.55-3.75,22.58,22.58,0,0,1,7.26-1.22A25.38,25.38,0,0,1,951,746.4a20.39,20.39,0,0,1,7.21,4.84Z"/><path class="cls-7" d="M993.62,762.24a11.94,11.94,0,0,0-3.94-3,10.82,10.82,0,0,0-4.68-1.07,7.14,7.14,0,0,0-4.54,1.59c-1.34,1.06-2,2.82-2,5.25a5.93,5.93,0,0,0,2.06,4.83,32.75,32.75,0,0,0,6.08,3.8q2.26,1.13,4.76,2.67a21.94,21.94,0,0,1,4.57,3.8,19,19,0,0,1,3.44,5.39,18.64,18.64,0,0,1,1.37,7.46,24.45,24.45,0,0,1-1.7,9.43,19,19,0,0,1-4.57,6.75,19.31,19.31,0,0,1-6.63,4,22.69,22.69,0,0,1-7.79,1.36,25.9,25.9,0,0,1-10.91-2.25,26.81,26.81,0,0,1-7.91-5.24l7.68-11.23a17.34,17.34,0,0,0,5,3.6,12.94,12.94,0,0,0,5.71,1.36,6.44,6.44,0,0,0,4.59-1.78,7.31,7.31,0,0,0-.38-10.16,32.61,32.61,0,0,0-6.55-4.07,42,42,0,0,1-5.1-2.91,19,19,0,0,1-4.22-3.84,16.84,16.84,0,0,1-2.85-5.24,21.82,21.82,0,0,1-1-7.11,22.79,22.79,0,0,1,1.82-9.51,18.61,18.61,0,0,1,4.78-6.5,19.51,19.51,0,0,1,6.55-3.75,22.62,22.62,0,0,1,7.26-1.22,25.46,25.46,0,0,1,9.74,1.77,20.48,20.48,0,0,1,7.21,4.84Z"/><path class="cls-7" d="M1057.56,779.37a54.27,54.27,0,0,1-1.78,14.37,34.62,34.62,0,0,1-5,11.1,23.21,23.21,0,0,1-8,7.11,23.58,23.58,0,0,1-21.25,0,23.21,23.21,0,0,1-8-7.11,34.62,34.62,0,0,1-5.05-11.1,54.27,54.27,0,0,1-1.78-14.37,55,55,0,0,1,1.73-14.28,33.28,33.28,0,0,1,5-11,22.16,22.16,0,0,1,18.72-9.51,22.55,22.55,0,0,1,10.63,2.48,23.08,23.08,0,0,1,8,7,34.16,34.16,0,0,1,5,11A53.27,53.27,0,0,1,1057.56,779.37Zm-15.35,0a45.72,45.72,0,0,0-.66-8,26.22,26.22,0,0,0-1.92-6.41,11.89,11.89,0,0,0-3.14-4.26,6.67,6.67,0,0,0-4.4-1.54,6.87,6.87,0,0,0-4.44,1.54,11.75,11.75,0,0,0-3.19,4.26,25,25,0,0,0-1.87,6.41,49,49,0,0,0-.61,8,49.68,49.68,0,0,0,.61,8,25,25,0,0,0,1.87,6.46,12.22,12.22,0,0,0,3.19,4.31,6.76,6.76,0,0,0,4.44,1.59,6.56,6.56,0,0,0,4.4-1.59,12.38,12.38,0,0,0,3.14-4.31,26.11,26.11,0,0,0,1.92-6.46A46.35,46.35,0,0,0,1042.21,779.37Z"/><path class="cls-7" d="M1094.31,812.7l-8.86-26.4h-4.39v26.4h-14.42V746.41h21.21q9.62,0,15,5t5.32,14.94a23.54,23.54,0,0,1-.84,6.55,18.29,18.29,0,0,1-2.19,5,13.84,13.84,0,0,1-3,3.37,11.63,11.63,0,0,1-3.27,1.87l11.3,29.59Zm-.89-45.5a10.24,10.24,0,0,0-.7-4.12,6.86,6.86,0,0,0-1.83-2.53,6.09,6.09,0,0,0-2.48-1.26,11.21,11.21,0,0,0-2.67-.33h-4.68v16.76h4.4a8.38,8.38,0,0,0,5.57-2C1092.63,772.36,1093.42,770.19,1093.42,767.2Z"/><path class="cls-7" d="M1144.73,762.24a12,12,0,0,0-3.93-3,10.83,10.83,0,0,0-4.69-1.07,7.14,7.14,0,0,0-4.54,1.59c-1.34,1.06-2,2.82-2,5.25a6,6,0,0,0,2.06,4.83,32.55,32.55,0,0,0,6.09,3.8q2.25,1.13,4.76,2.67a22.47,22.47,0,0,1,4.57,3.8,19.22,19.22,0,0,1,3.44,5.39,18.65,18.65,0,0,1,1.36,7.46,24.45,24.45,0,0,1-1.69,9.43,19.09,19.09,0,0,1-4.57,6.75,19.35,19.35,0,0,1-6.64,4,22.69,22.69,0,0,1-7.79,1.36,25.94,25.94,0,0,1-10.91-2.25,26.94,26.94,0,0,1-7.91-5.24l7.68-11.23a17.48,17.48,0,0,0,5,3.6,12.94,12.94,0,0,0,5.71,1.36,6.44,6.44,0,0,0,4.59-1.78,7.32,7.32,0,0,0-.37-10.16,33,33,0,0,0-6.56-4.07,42,42,0,0,1-5.1-2.91A18.73,18.73,0,0,1,1119,778a16.86,16.86,0,0,1-2.86-5.24,21.82,21.82,0,0,1-1-7.11,22.63,22.63,0,0,1,1.83-9.51,18.71,18.71,0,0,1,4.77-6.5,19.56,19.56,0,0,1,6.56-3.75,22.56,22.56,0,0,1,7.25-1.22,25.43,25.43,0,0,1,9.74,1.77,20.48,20.48,0,0,1,7.21,4.84Z"/></g></svg>